<svg width="779" height="86" viewBox="0 0 779 86" fill="none" xmlns="http://www.w3.org/2000/svg">
<path d="M127.462 38.1004L127.683 38.5485L127.876 38.4531L127.939 38.2474L127.462 38.1004ZM252.462 28.1004L252.741 27.6856L252.462 28.1004ZM392.462 63.1004L392.815 63.4539L392.462 63.1004ZM541.462 69.1004L541.292 69.5709L541.331 69.5847L541.371 69.5921L541.462 69.1004ZM778.575 38.5873C778.844 38.5246 779.011 38.2558 778.948 37.9869L777.927 33.6043C777.864 33.3354 777.595 33.1682 777.327 33.2309C777.058 33.2936 776.89 33.5624 776.953 33.8313L777.861 37.7269L773.966 38.6349C773.697 38.6976 773.529 38.9664 773.592 39.2353C773.655 39.5043 773.924 39.6715 774.193 39.6088L778.575 38.5873ZM0.461533 14.1003L-5.86696e-06 14.2927C12.0958 43.3226 35.9755 53.3957 60.8204 54.2001C85.6367 55.0036 111.47 46.5717 127.683 38.5485L127.462 38.1004L127.24 37.6522C111.12 45.6291 85.4531 53.9971 60.8527 53.2006C36.2809 52.405 12.8273 42.4781 0.923071 13.908L0.461533 14.1003ZM127.462 38.1004L127.939 38.2474C131.903 25.3653 142.853 9.42001 162.805 3.42923C182.755 -2.56049 211.847 1.35839 252.182 28.5151L252.462 28.1004L252.741 27.6856C212.276 0.442318 182.869 -3.63881 162.518 2.47147C142.17 8.5807 131.02 24.8354 126.984 37.9533L127.462 38.1004ZM252.462 28.1004L252.182 28.5151C277.429 45.5128 296.627 58.3952 311.764 67.6056C326.894 76.8115 338.01 82.3773 347.087 84.7096C356.199 87.0509 363.266 86.136 370.26 82.4008C377.211 78.6879 384.075 72.1939 392.815 63.4539L392.462 63.1004L392.108 62.7468C383.348 71.5068 376.587 77.8878 369.788 81.5187C363.032 85.1272 356.224 86.0249 347.336 83.7411C338.413 81.4484 327.404 75.9517 312.284 66.7513C297.171 57.5555 277.994 44.6879 252.741 27.6856L252.462 28.1004ZM392.462 63.1004L392.815 63.4539C399.708 56.5611 410.024 52.6081 422.285 50.7981C434.539 48.989 448.679 49.329 463.155 50.9722C492.107 54.2583 522.318 62.7468 541.292 69.5709L541.462 69.1004L541.631 68.6299C522.605 61.7873 492.316 53.2757 463.268 49.9785C448.744 48.33 434.51 47.9825 422.139 49.8088C409.774 51.6342 399.215 55.6396 392.108 62.7468L392.462 63.1004ZM541.462 69.1004L541.371 69.5921C559.574 72.932 588.028 75.3881 614.253 71.896C640.439 68.4089 664.602 58.9609 673.917 38.3059L673.462 38.1004L673.006 37.8948C663.921 58.0398 640.251 67.4252 614.121 70.9047C588.028 74.3793 559.683 71.9354 541.552 68.6086L541.462 69.1004ZM673.462 38.1004L673.917 38.3059C678.462 28.2275 685.516 22.1589 693.963 18.9649C702.427 15.7647 712.322 15.4397 722.54 16.9202C742.98 19.8818 764.564 30.0456 778.197 38.5249L778.462 38.1004L778.726 37.6758C765.026 29.1551 743.309 18.919 722.683 15.9305C712.368 14.436 702.287 14.7485 693.61 18.0295C684.916 21.3168 677.661 27.5732 673.006 37.8948L673.462 38.1004Z" fill="#414833"/>
</svg>
